<svg width="720" height="540" viewBox="0 0 720 540" xmlns="http://www.w3.org/2000/svg" fill="none">
  <defs>
    <linearGradient id="g1" x1="0" y1="0" x2="1" y2="1">
      <stop offset="0" stop-color="#1F78C8"/>
      <stop offset="1" stop-color="#8FC1EA"/>
    </linearGradient>
    <linearGradient id="g2" x1="1" y1="0" x2="0" y2="1">
      <stop offset="0" stop-color="#4F5D75" stop-opacity="0.2"/>
      <stop offset="1" stop-color="#4F5D75" stop-opacity="0"/>
    </linearGradient>
    <clipPath id="r">
      <rect rx="24" ry="24" x="0" y="0" width="720" height="540"/>
    </clipPath>
  </defs>
  <g clip-path="url(#r)">
    <rect width="720" height="540" fill="url(#g2)"/>
    <circle cx="560" cy="80" r="140" fill="url(#g1)" opacity="0.15"/>
    <circle cx="140" cy="420" r="180" fill="url(#g1)" opacity="0.1"/>
    <g stroke="url(#g1)" stroke-width="2" opacity="0.9">
      <path d="M120 360 C220 260, 320 460, 420 360 S 620 260, 720 360" fill="none"/>
      <path d="M0 200 C120 100, 240 300, 360 200 S 600 100, 720 200" fill="none" opacity="0.6"/>
    </g>
    <g stroke="#1F78C8" stroke-width="3" fill="none" opacity="0.7">
      <path d="M86 80 h90 v24 h-66 v18 h48 v24 h-48 v18 h66 v24 h-90"/>
      <path d="M268 80 h60 c24 0 42 18 42 40 c0 22 -18 40 -42 40 h-36 v34 h-24 V80z m84 40 c0 -11 -9 -20 -20 -20 h-40 v40 h40 c11 0 20 -9 20 -20z"/>
    </g>
  </g>
</svg>
